<svg id="Capa_1" enable-background="new 0 0 512.282 512.282" height="512" viewBox="0 0 512.282 512.282" width="512" xmlns="http://www.w3.org/2000/svg"><g><path d="m256.141 0c-90.447 0-169.527 61.809-192.31 150.309-1.033 4.011 1.382 8.1 5.394 9.133 4.008 1.032 8.101-1.382 9.133-5.394 11.671-45.337 39.303-83.094 75.832-107.77-23.478 41.17-36.607 94.923-36.607 152.12 0 48.05 19.818 113.818 58.977 195.921-47.978-57.747-104.146-137.285-104.146-193.139 0-5.349.241-10.865.717-16.396.355-4.127-2.702-7.76-6.829-8.115-4.129-.36-7.76 2.702-8.115 6.829-.513 5.957-.773 11.906-.773 17.682 0 32.247 16.255 73.708 48.313 123.231 22.858 35.311 53.177 74.044 90.113 115.123 4.028 4.48 9.72 7.113 15.708 7.302l3.915 16.95c-4.679.049-8.929 1.986-11.392 5.215-2.016 2.644-2.681 5.952-1.824 9.077l6.939 25.313c1.457 5.319 6.84 8.892 13.396 8.892h67.115c6.556 0 11.94-3.573 13.396-8.89l6.94-25.315c.857-3.125.192-6.434-1.824-9.077-2.463-3.229-6.713-5.166-11.392-5.215l3.922-16.983c5.694-.372 11.073-2.955 14.931-7.224 37.138-41.081 67.623-79.816 90.608-115.132 32.24-49.536 48.587-91.008 48.587-123.266.002-110.932-89.146-201.181-198.724-201.181zm-73.388 30.532c.019-.025.035-.051.054-.076 11.078-4.887 22.69-8.695 34.694-11.307-14.752 41.608-23.409 107.172-23.409 179.248 0 19.076 1.368 41.441 4.066 66.474.415 3.845 3.666 6.697 7.448 6.697.269 0 .54-.014.813-.043 4.118-.444 7.097-4.143 6.653-8.261-2.641-24.501-3.98-46.325-3.98-64.867 0-74.284 9.758-143.544 25.553-182.117 7.069-.84 14.242-1.28 21.496-1.28 7.274 0 14.446.444 21.502 1.282 6.692 16.357 12.486 38.737 16.813 65.019.605 3.675 3.785 6.283 7.391 6.283.405 0 .815-.033 1.228-.101 4.087-.673 6.855-4.531 6.182-8.619-3.804-23.109-8.756-43.451-14.492-59.711 12.062 2.626 23.687 6.454 34.748 11.356.006.008.011.016.016.023 31.884 40.327 50.17 101.512 50.17 167.865 0 53.219-27.652 133.917-79.964 233.434-.14.009-.28.022-.421.022h-13.834c21.704-100.083 32.709-178.603 32.709-233.456 0-30.33-1.526-59.657-4.537-87.168-.451-4.118-4.162-7.089-8.271-6.64-4.118.451-7.09 4.154-6.64 8.271 2.951 26.971 4.448 55.75 4.448 85.537 0 54.365-11.127 132.903-33.062 233.456h-28.15c-11.044-50.915-19.448-96.944-24.975-136.852-.568-4.103-4.354-6.971-8.458-6.4-4.103.568-6.969 4.355-6.4 8.458 5.464 39.45 13.698 84.768 24.484 134.794h-14.388c-.038 0-.075-.005-.113-.006-52.037-99.52-79.544-180.221-79.544-233.45-.001-66.353 18.285-127.538 50.17-167.865zm80.888 433.243v-16.922h21.693l-3.908 16.922zm-32.785 0-3.908-16.922h21.693v16.922zm58.36 33.507h-66.15l-5.074-18.506h6.875c.006 0 .011.001.017.001.009 0 .017-.001.026-.001h62.462c.009 0 .017.001.026.001.006 0 .011-.001.017-.001h6.875zm46.539-103.677c39.14-81.773 58.944-147.297 58.944-195.207 0-57.125-13.095-110.816-36.518-151.966 49.22 33.437 81.686 90.321 81.686 154.748 0 55.619-56.005 134.733-104.112 192.425z"/></g></svg>