<svg id="Capa_1" enable-background="new 0 0 512 512" height="512" viewBox="0 0 512 512" width="512" xmlns="http://www.w3.org/2000/svg"><g><path d="m196 110h90c11.028 0 20 8.972 20 20 0 11.045-8.954 20-20 20h-30c-22.056 0-40 17.944-40 40 0 5.523 4.477 10 10 10s10-4.477 10-10c0-11.028 8.972-20 20-20h30c22.099 0 40-17.899 40-40 0-22.056-17.944-40-40-40h-90c-11.045 0-20-8.954-20-20 0-11.028 8.972-20 20-20h30c22.056 0 40-17.944 40-40 0-5.523-4.477-10-10-10s-10 4.477-10 10c0 11.028-8.972 20-20 20h-30c-22.056 0-40 17.944-40 40 0 22.099 17.899 40 40 40z"/><path d="m136 512h45c5.523 0 10-4.477 10-10s-4.477-10-10-10h-45c-24.146 0-44.349-17.206-48.996-40.01h277.991c-4.646 22.804-24.849 40.01-48.995 40.01h-45c-5.523 0-10 4.477-10 10s4.477 10 10 10h45c38.598 0 70-31.402 70-70 0-5.523-4.477-10-10-10h-93.219c14.949-11.117 28.539-26.639 39.963-46h53.256c38.598 0 70-31.402 70-70s-31.402-70-70-70c-23.018 0-256.985 0-270 0-5.523 0-10 4.477-10 10 0 65.067 23.835 139.221 73.064 176h-93.064c-5.523 0-10 4.477-10 10 0 38.598 31.402 70 70 70zm240-246c27.57 0 50 22.43 50 50s-22.43 50-50 50h-42.875c13.548-29.825 21.438-64.503 22.691-100zm-259.807-.01h219.618c-3.304 87.419-50.627 166.01-109.811 166.01-68.914 0-107.108-95.911-109.807-166.01z"/><circle cx="226" cy="502" r="10"/></g></svg>