<svg id="Capa_1" enable-background="new 0 0 512.175 512.175" height="512" viewBox="0 0 512.175 512.175" width="512" xmlns="http://www.w3.org/2000/svg"><g><path d="m167.504 355.872h-36.891c-12.056 0-21.864 9.808-21.864 21.864v11.077c0 12.056 9.808 21.863 21.864 21.863h36.891c12.056 0 21.864-9.808 21.864-21.863v-11.077c-.001-12.056-9.809-21.864-21.864-21.864zm6.863 32.941c0 3.785-3.079 6.863-6.864 6.863h-36.891c-3.785 0-6.864-3.079-6.864-6.863v-11.077c0-3.785 3.079-6.864 6.864-6.864h36.891c3.785 0 6.864 3.079 6.864 6.864z"/><path d="m382.563 355.872h-36.892c-12.056 0-21.864 9.808-21.864 21.864v11.077c0 12.056 9.809 21.863 21.864 21.863h36.892c12.056 0 21.863-9.808 21.863-21.863v-11.077c.001-12.056-9.807-21.864-21.863-21.864zm6.864 32.941c0 3.785-3.079 6.863-6.863 6.863h-36.892c-3.785 0-6.864-3.079-6.864-6.863v-11.077c0-3.785 3.079-6.864 6.864-6.864h36.892c3.784 0 6.863 3.079 6.863 6.864z"/><path d="m453.065 262.172h-10.168c-14.602 0-26.48 11.879-26.48 26.48 0 5.93 1.96 11.412 5.265 15.831l-12.699 20.67c-1.467-.446-2.977-.79-4.525-1.021l-8.072-96.632c-.969-11.61-6.746-21.859-15.246-28.85 5.515-4.463 9.049-11.281 9.049-18.911v-55.239c0-13.413-10.912-24.325-24.325-24.325h-3.695v-41.568c0-11.505-9.36-20.866-20.865-20.866h-23.471-15.339v-16.074c-.001-11.947-9.721-21.667-21.668-21.667h-48.477c-11.947 0-21.667 9.72-21.667 21.667v16.074h-15.339-23.47c-11.505 0-20.866 9.36-20.866 20.866v41.568h-3.695c-13.413 0-24.325 10.912-24.325 24.325v55.24c0 7.402 3.327 14.037 8.559 18.502-8.778 6.997-14.769 17.419-15.758 29.259l-8.072 96.632c-1.548.23-3.058.575-4.525 1.021l-12.699-20.67c3.306-4.419 5.266-9.9 5.266-15.831 0-14.602-11.879-26.48-26.48-26.48h-10.168c-14.602 0-26.48 11.879-26.48 26.48s11.879 26.48 26.48 26.48h10.168c3.215 0 6.297-.577 9.151-1.631l11.871 19.322c-5.094 5.028-8.483 11.816-9.207 19.498l-7.063 74.925c-3.821 2.591-6.337 6.968-6.337 11.922v16.002c0 7.938 6.458 14.396 14.396 14.396h12.461v20.137c0 12.391 10.081 22.471 22.471 22.471h37.957c12.391 0 22.471-10.081 22.471-22.471v-20.137h158.275v20.137c0 12.391 10.081 22.471 22.472 22.471h37.956c12.391 0 22.472-10.081 22.472-22.471v-20.137h12.461c7.938 0 14.396-6.458 14.396-14.396v-16.002c0-5.398-2.99-10.106-7.398-12.57l-7.001-74.277c-.724-7.682-4.113-14.469-9.207-19.498l11.871-19.322c2.853 1.054 5.936 1.631 9.151 1.631h10.168c14.602 0 26.48-11.879 26.48-26.48s-11.878-26.481-26.48-26.481zm-393.955 37.961c-6.331 0-11.48-5.15-11.48-11.48s5.15-11.48 11.48-11.48h10.168c6.331 0 11.48 5.15 11.48 11.48s-5.15 11.48-11.48 11.48zm288.058-241.526v41.568h-21.836v-47.434h15.971c3.234 0 5.865 2.632 5.865 5.866zm-36.836 41.568h-14.589v-47.434h14.589zm-77.899 0v-47.434h48.31v47.434zm-.084-85.175h48.477c3.676 0 6.667 2.991 6.667 6.667v16.074h-61.811v-16.074c0-3.676 2.991-6.667 6.667-6.667zm-14.916 37.741v47.434h-14.589v-47.434zm-51.425 5.866c0-3.234 2.631-5.866 5.866-5.866h15.97v47.434h-21.836zm-18.695 130.458c-5.142 0-9.325-4.183-9.325-9.325v-20.12h61.558v.524c0 8.475 6.895 15.37 15.37 15.37h83.344c8.476 0 15.37-6.895 15.37-15.37v-.524h14.798c4.143 0 7.5-3.358 7.5-7.5s-3.357-7.5-7.5-7.5h-14.798v-.524c0-8.475-6.895-15.37-15.37-15.37h-83.344c-8.475 0-15.37 6.895-15.37 15.37v.524h-61.558v-20.12c0-5.142 4.183-9.325 9.325-9.325h218.55c5.142 0 9.325 4.183 9.325 9.325v20.12h-14.798c-4.143 0-7.5 3.358-7.5 7.5s3.357 7.5 7.5 7.5h14.798v20.12c0 5.142-4.184 9.325-9.325 9.325zm151.317-28.921c0 .204-.166.37-.37.37h-83.344c-.204 0-.37-.166-.37-.37v-16.048c0-.204.166-.37.37-.37h83.344c.204 0 .37.166.37.37zm-167.893 68.606c1.156-13.842 12.942-24.685 26.833-24.685h197.037c13.891 0 25.676 10.843 26.832 24.685l7.938 95.03h-15.053l-7.82-93.624c-.519-6.219-5.813-11.091-12.055-11.091h-134.343c-4.142 0-7.5 3.358-7.5 7.5s3.358 7.5 7.5 7.5h131.671l7.495 89.715h-206.368l7.494-89.715h27.747c4.142 0 7.5-3.358 7.5-7.5s-3.358-7.5-7.5-7.5h-30.418c-6.24 0-11.535 4.871-12.054 11.089l-7.821 93.626h-15.052zm31.713 260.954c0 4.12-3.352 7.471-7.471 7.471h-37.957c-4.12 0-7.471-3.352-7.471-7.471v-20.137h52.899zm241.175 0c0 4.12-3.352 7.471-7.472 7.471h-37.956c-4.12 0-7.472-3.352-7.472-7.471v-20.137h52.899v20.137zm19.221-64.931h-39.44c-4.143 0-7.5 3.358-7.5 7.5s3.357 7.5 7.5 7.5h47.076v14.794h-347.788v-14.794h268.75c4.143 0 7.5-3.358 7.5-7.5s-3.357-7.5-7.5-7.5h-37.271l-11.551-56.522c-1.577-7.718-8.439-13.319-16.316-13.319h-60.436c-7.878 0-14.74 5.602-16.317 13.32l-11.55 56.521h-108.673l6.697-71.043c.514-5.454 3.598-10.039 7.99-12.642.041-.024.083-.04.124-.065.013-.008.025-.018.038-.026 2.436-1.406 5.257-2.218 8.273-2.218h287.271c3.018 0 5.841.812 8.278 2.22.012.007.023.016.035.024.037.022.076.037.113.059 4.398 2.601 7.486 7.189 8.001 12.647zm-205.462-19.921h77.408l4.071 19.921h-85.55zm3.065-15 3.8-18.598c.157-.767.838-1.323 1.621-1.323h60.436c.782 0 1.464.557 1.62 1.323l3.801 18.598zm232.616-89.719h-10.168c-6.33 0-11.48-5.15-11.48-11.48s5.15-11.48 11.48-11.48h10.168c6.33 0 11.48 5.15 11.48 11.48s-5.15 11.48-11.48 11.48z"/></g></svg>