<svg id="Capa_1" enable-background="new 0 0 512 512" height="512" viewBox="0 0 512 512" width="512" xmlns="http://www.w3.org/2000/svg"><g><path d="m370 375.384v-8.384c0-17.042-7.792-32.298-20-42.395v-97.605c0-35.841-29.159-65-65-65h-180c-35.841 0-65 29.159-65 65v97.605c-12.208 10.097-20 25.353-20 42.395v8.384c-11.814 5.627-20 17.682-20 31.616v50c0 8.284 6.716 15 15 15h15v25c0 8.284 6.716 15 15 15s15-6.716 15-15v-25h270v25c0 8.284 6.716 15 15 15s15-6.716 15-15v-25h15c8.284 0 15-6.716 15-15v-50c0-13.934-8.186-25.989-20-31.616zm-320-8.384c0-13.785 11.215-25 25-25h240c13.785 0 25 11.215 25 25v5h-290zm180-55h-70v-35c0-2.757 2.243-5 5-5h60c2.757 0 5 2.243 5 5zm-160-85c0-19.299 15.701-35 35-35h180c19.299 0 35 15.701 35 35v85.238c-1.648-.149-3.314-.238-5-.238h-55v-35c0-19.299-15.701-35-35-35h-60c-19.299 0-35 15.701-35 35v35h-55c-1.686 0-3.352.088-5 .238zm290 215h-330v-35c0-2.757 2.243-5 5-5h320c2.757 0 5 2.243 5 5z"/><path d="m494.949 100h-35.43l50.048-76.811c3.005-4.611 3.243-10.498.62-15.336-2.622-4.839-7.684-7.853-13.187-7.853h-66.711c-8.284 0-15 6.716-15 15s6.716 15 15 15h39.034l-50.048 76.811c-3.005 4.611-3.243 10.498-.62 15.336 2.622 4.838 7.684 7.853 13.188 7.853h63.107c8.284 0 15-6.716 15-15s-6.717-15-15.001-15z"/><path d="m400.188 67.853c-2.623-4.839-7.685-7.853-13.188-7.853h-46.698c-8.284 0-15 6.716-15 15s6.716 15 15 15h19.021l-30.501 46.811c-3.005 4.611-3.243 10.498-.62 15.336 2.622 4.838 7.684 7.853 13.188 7.853h44.175c8.284 0 15-6.716 15-15s-6.716-15-15-15h-16.498l30.501-46.811c3.004-4.611 3.242-10.498.62-15.336z"/></g></svg>