<svg id="Capa_1" enable-background="new 0 0 512.236 512.236" height="512" viewBox="0 0 512.236 512.236" width="512" xmlns="http://www.w3.org/2000/svg"><g><path d="m473.222 101.061h-68.97c-5.982 0-11.089 4.279-12.143 10.172-1.281 7.162-7.504 12.359-14.796 12.359s-13.515-5.198-14.796-12.359c-1.055-5.894-6.162-10.172-12.143-10.172h-236.859c-4.142 0-7.5 3.358-7.5 7.5s3.358 7.5 7.5 7.5h234.711c2.746 10.719 11.124 18.903 21.587 21.587v5.706c0 4.142 3.358 7.5 7.5 7.5s7.5-3.358 7.5-7.5v-5.706c10.463-2.684 18.841-10.868 21.587-21.587h66.821c13.242 0 24.015 10.773 24.015 24.015v92.637c0 4.142 3.358 7.5 7.5 7.5s7.5-3.358 7.5-7.5v-92.637c0-21.513-17.502-39.015-39.014-39.015z"/><path d="m504.736 257.175c-4.142 0-7.5 3.358-7.5 7.5v107.485c0 13.242-10.773 24.015-24.015 24.015h-66.821c-2.746-10.719-11.125-18.903-21.587-21.587v-2.804c0-4.142-3.358-7.5-7.5-7.5s-7.5 3.358-7.5 7.5v2.804c-10.463 2.685-18.841 10.869-21.587 21.587h-309.211c-13.242 0-24.015-10.773-24.015-24.014v-232.085c0-13.242 10.773-24.015 24.015-24.015h42.538c4.142 0 7.5-3.358 7.5-7.5s-3.358-7.5-7.5-7.5h-42.538c-21.513 0-39.015 17.502-39.015 39.015v232.085c0 21.513 17.502 39.015 39.015 39.015h311.359c5.982 0 11.088-4.278 12.143-10.173 1.281-7.161 7.503-12.359 14.796-12.359s13.515 5.198 14.796 12.358c1.053 5.895 6.16 10.174 12.143 10.174h68.97c21.513 0 39.015-17.502 39.015-39.015v-107.486c-.001-4.142-3.359-7.5-7.501-7.5z"/><path d="m377.313 190.97c4.142 0 7.5-3.358 7.5-7.5v-12.262c0-4.142-3.358-7.5-7.5-7.5s-7.5 3.358-7.5 7.5v12.262c0 4.142 3.358 7.5 7.5 7.5z"/><path d="m369.813 223.584c0 4.142 3.358 7.5 7.5 7.5s7.5-3.358 7.5-7.5v-12.261c0-4.142-3.358-7.5-7.5-7.5s-7.5 3.358-7.5 7.5z"/><path d="m369.813 263.7c0 4.142 3.358 7.5 7.5 7.5s7.5-3.358 7.5-7.5v-12.261c0-4.142-3.358-7.5-7.5-7.5s-7.5 3.358-7.5 7.5z"/><path d="m369.813 303.815c0 4.142 3.358 7.5 7.5 7.5s7.5-3.358 7.5-7.5v-12.261c0-4.142-3.358-7.5-7.5-7.5s-7.5 3.358-7.5 7.5z"/><path d="m369.813 343.93c0 4.142 3.358 7.5 7.5 7.5s7.5-3.358 7.5-7.5v-12.261c0-4.142-3.358-7.5-7.5-7.5s-7.5 3.358-7.5 7.5z"/><path d="m135.949 161.363-21.089 11.399-41.776-8.89c-4.053-.861-8.035 1.724-8.897 5.775s1.724 8.035 5.775 8.897l24.54 5.222-22.846 12.349-13.059-5.804c-3.786-1.681-8.217.022-9.899 3.808-1.682 3.785.022 8.217 3.808 9.899l16.428 7.301c.972.432 2.009.646 3.046.646 1.229 0 2.457-.302 3.566-.902l67.536-36.506c3.644-1.97 5.001-6.52 3.031-10.164-1.969-3.642-6.52-4.999-10.164-3.03z"/><path d="m346.872 160.887c0-8.007-6.514-14.521-14.521-14.521h-145.201c-8.007 0-14.521 6.514-14.521 14.521v20.642c0 8.007 6.514 14.521 14.521 14.521h88.219c4.142 0 7.5-3.358 7.5-7.5s-3.358-7.5-7.5-7.5h-87.74v-19.683h144.243v19.683h-24.541c-4.142 0-7.5 3.358-7.5 7.5s3.358 7.5 7.5 7.5h25.02c8.007 0 14.521-6.514 14.521-14.521z"/><path d="m144.622 247.618h-80.134c-4.142 0-7.5 3.358-7.5 7.5s3.358 7.5 7.5 7.5h80.133c4.142 0 7.5-3.358 7.5-7.5s-3.357-7.5-7.499-7.5z"/><path d="m202.316 277.285c1.474 1.545 3.449 2.323 5.427 2.323 1.86 0 3.724-.688 5.176-2.074l17.807-16.99c1.532-1.462 2.375-3.503 2.32-5.62s-1.002-4.112-2.607-5.493l-17.807-15.312c-3.142-2.701-7.877-2.343-10.577.796-2.701 3.141-2.344 7.876.796 10.577l2.472 2.125h-20.209c-4.142 0-7.5 3.358-7.5 7.5s3.358 7.5 7.5 7.5h21.708l-4.259 4.063c-2.995 2.861-3.106 7.608-.247 10.605z"/><path d="m263.898 248.457c-4.142 0-7.5 3.358-7.5 7.5s3.358 7.5 7.5 7.5h75.473c4.142 0 7.5-3.358 7.5-7.5s-3.358-7.5-7.5-7.5z"/><path d="m59.441 301.685c0 4.142 3.358 7.5 7.5 7.5h272.43c4.142 0 7.5-3.358 7.5-7.5s-3.358-7.5-7.5-7.5h-272.43c-4.142 0-7.5 3.357-7.5 7.5z"/><path d="m339.372 338.912h-272.431c-4.142 0-7.5 3.358-7.5 7.5s3.358 7.5 7.5 7.5h272.43c4.142 0 7.5-3.358 7.5-7.5s-3.357-7.5-7.499-7.5z"/><path d="m413.814 193.714h60.25c4.142 0 7.5-3.358 7.5-7.5s-3.358-7.5-7.5-7.5h-60.25c-4.142 0-7.5 3.358-7.5 7.5s3.358 7.5 7.5 7.5z"/><path d="m413.814 224.954h60.25c4.142 0 7.5-3.358 7.5-7.5s-3.358-7.5-7.5-7.5h-60.25c-4.142 0-7.5 3.358-7.5 7.5s3.358 7.5 7.5 7.5z"/><path d="m413.814 256.194h60.25c4.142 0 7.5-3.358 7.5-7.5s-3.358-7.5-7.5-7.5h-60.25c-4.142 0-7.5 3.358-7.5 7.5s3.358 7.5 7.5 7.5z"/><path d="m413.814 287.434h60.25c4.142 0 7.5-3.358 7.5-7.5s-3.358-7.5-7.5-7.5h-60.25c-4.142 0-7.5 3.358-7.5 7.5s3.358 7.5 7.5 7.5z"/><path d="m406.314 360.225c0 4.142 3.358 7.5 7.5 7.5s7.5-3.358 7.5-7.5v-46.739c0-4.142-3.358-7.5-7.5-7.5s-7.5 3.358-7.5 7.5z"/><path d="m443.939 345.946c-4.142 0-7.5 3.358-7.5 7.5v6.779c0 4.142 3.358 7.5 7.5 7.5s7.5-3.358 7.5-7.5v-6.779c0-4.142-3.358-7.5-7.5-7.5z"/><path d="m474.064 305.986c-4.142 0-7.5 3.358-7.5 7.5v46.739c0 4.142 3.358 7.5 7.5 7.5s7.5-3.358 7.5-7.5v-46.739c0-4.142-3.358-7.5-7.5-7.5z"/><path d="m451.439 313.486c0-4.142-3.358-7.5-7.5-7.5s-7.5 3.358-7.5 7.5v13.183c0 4.142 3.358 7.5 7.5 7.5s7.5-3.358 7.5-7.5z"/></g></svg>